# xmcd CD database file
#
# Track frame offsets:
#	150
#	29969
#	57966
#	74256
#	107237
#	128278
#	151163
#	189277
#	212016
#	233560
#	250935
#	267613
#
# Disc length: 3812 seconds
#
# Revision: 0
# Processed by: cddbd v1.5.2PL0 Copyright (c) Steve Scherf et al.
# Submitted via: CDex 1.51
#
DISCID=a60ee20c
DTITLE=Noldi Tobler - Noldi Tobler and Band
DYEAR=2008
DGENRE=Jazz
TTITLE0=Sunshower
TTITLE1=Ain't Misbehavin
TTITLE2=Miss you Rose
TTITLE3=Meditation
TTITLE4=All of Me
TTITLE5=Morning Dance
TTITLE6=Black Coffee
TTITLE7=Favela
TTITLE8=Mercy Mercy Mercy
TTITLE9=Misty
TTITLE10=Blue Monk
TTITLE11=It could happen to you
EXTD=YEAR: 2008
EXTT0=
EXTT1=
EXTT2=
EXTT3=
EXTT4=
EXTT5=
EXTT6=
EXTT7=
EXTT8=
EXTT9=
EXTT10=
EXTT11=
PLAYORDER=
